<svg width="1080" height="1080" viewBox="0 0 1080 1080" fill="none" xmlns="http://www.w3.org/2000/svg">
<g clip-path="url(#clip0_22_499)">
<path fill-rule="evenodd" clip-rule="evenodd" d="M540 0C838.234 0 1080 241.766 1080 540C1080 838.234 838.234 1080 540 1080C241.766 1080 0 838.234 0 540C0 241.766 241.766 0 540 0ZM546.989 813.657C444.515 813.538 359.502 813.593 358.078 813.771C345.044 815.383 320.932 821.936 310.159 826.796C303.599 829.757 287.248 841.827 287.248 841.827C285.3 843.978 284.93 847.055 286.122 849.597C355.214 906.32 443.63 940.369 540 940.369C639.514 940.369 730.548 904.061 800.579 843.971C799.452 842.114 795.615 838.879 791.059 835.959C775.506 825.998 764.782 821.574 743.667 816.402L733.315 813.863L546.989 813.657ZM478.731 144.289C402.235 156.036 332.875 189.435 277.103 238.031C273.063 241.565 269.096 245.164 265.211 248.82C195.715 314.428 149.699 404.641 141.096 505.529C140.844 512.853 140.752 521.099 140.759 530.913C140.777 556.059 141.204 573.184 142.445 587.713C148.892 642.004 166.203 692.962 192.142 738.355C195.852 737.618 210.209 729.31 227.654 717.757C292.07 675.1 341.194 625.464 384.166 559.622C396.536 540.669 421.728 493.483 428.363 476.855C429.442 474.148 432.75 465.867 435.711 458.468C444.666 436.096 454.09 406.459 461.054 378.78C469.405 345.589 472.081 330.736 476.806 291.332C479.552 268.48 479.601 266.867 479.655 205.139C479.688 166.292 479.848 150.563 478.731 144.289ZM611.055 145.917C608.707 166.716 609.964 281.467 613.148 302.2C614.022 307.89 615.434 317.668 616.287 323.93C620.797 357.104 625.02 379.401 630.89 401.034C639.041 431.075 641.053 437.769 645.843 450.708L651.012 464.682L656.714 478.65C658.791 483.488 661.105 489.075 661.85 491.071C664.283 497.554 678.906 527.122 683.653 535.158C683.68 535.204 688.288 543.152 688.288 543.35C688.296 543.563 692.188 549.922 696.941 557.497C732.928 614.791 772.416 657.07 830.429 700.422C846.348 712.32 851.98 716.193 877.717 732.923C882.16 735.811 885.36 737.612 887.916 738.249C921.294 679.799 940.369 612.128 940.369 540C940.369 343.131 798.277 179.45 611.055 145.917ZM543.245 552.34C542.327 552.168 540.11 553.264 538.325 554.763C536.544 556.268 533.589 560.593 531.766 564.384C520.852 587.042 474.405 666.266 467.565 673.892C466.443 675.138 465.715 677.188 465.909 678.547C466.189 680.526 467.02 681.076 470.392 681.496C472.668 681.782 505.662 682.014 543.715 682.008C609.339 682.003 612.963 681.907 614.269 680.127C616.33 677.307 614.825 673.552 606.615 661.023C597.401 646.957 587.005 629.822 577.338 612.768C573.174 605.417 568.934 597.968 567.914 596.21C564.904 590.999 554.12 570.77 549.352 561.369C546.913 556.575 544.167 552.508 543.245 552.34Z" fill="#5DA39A"/>
</g>
<defs>
<clipPath id="clip0_22_499">
<rect width="1080" height="1080" fill="white"/>
</clipPath>
</defs>
</svg>
